<svg viewBox="0 0 120 120" xmlns="http://www.w3.org/2000/svg" role="img" aria-label="OpenAI ChatGPT logo">
  <rect width="120" height="120" rx="26" fill="#111111"/>
  <g fill="#10A37F" transform="translate(60 60)">
    <path d="M0-33c9.4 0 17 7.6 17 17v11.2l9.7 5.6c8.1 4.7 10.9 15.1 6.2 23.2-4.7 8.1-15.1 10.9-23.2 6.2l-9.7-5.6-9.7 5.6c-8.1 4.7-18.5 1.9-23.2-6.2-4.7-8.1-1.9-18.5 6.2-23.2l9.7-5.6V-16c0-9.4 7.6-17 17-17Zm0 8c-5 0-9 4-9 9v16.2L-22.7 8c-4.3 2.5-5.7 8-3.2 12.3 2.5 4.3 8 5.7 12.3 3.2L0 15.7l13.6 7.8c4.3 2.5 9.8 1.1 12.3-3.2 2.5-4.3 1.1-9.8-3.2-12.3L9 0.2V-16c0-5-4-9-9-9Z"/>
    <circle cx="0" cy="0" r="17" fill="#111111"/>
    <circle cx="0" cy="0" r="9" fill="#10A37F"/>
  </g>
</svg>
